<svg width="1200" height="630" viewBox="0 0 1200 630" fill="none" xmlns="http://www.w3.org/2000/svg">
  <rect width="1200" height="630" fill="#0f172a"/>
  <defs>
    <linearGradient id="gradient" x1="0%" y1="0%" x2="100%" y2="100%">
      <stop offset="0%" style="stop-color:#3b82f6;stop-opacity:1" />
      <stop offset="100%" style="stop-color:#1d4ed8;stop-opacity:1" />
    </linearGradient>
  </defs>
  
  <!-- Solar panel icon -->
  <rect x="100" y="200" width="200" height="120" rx="8" fill="url(#gradient)" stroke="#60a5fa" stroke-width="2"/>
  <rect x="110" y="210" width="40" height="25" fill="#1e40af"/>
  <rect x="160" y="210" width="40" height="25" fill="#1e40af"/>
  <rect x="210" y="210" width="40" height="25" fill="#1e40af"/>
  <rect x="260" y="210" width="40" height="25" fill="#1e40af"/>
  <rect x="110" y="245" width="40" height="25" fill="#1e40af"/>
  <rect x="160" y="245" width="40" height="25" fill="#1e40af"/>
  <rect x="210" y="245" width="40" height="25" fill="#1e40af"/>
  <rect x="260" y="245" width="40" height="25" fill="#1e40af"/>
  <rect x="110" y="280" width="40" height="25" fill="#1e40af"/>
  <rect x="160" y="280" width="40" height="25" fill="#1e40af"/>
  <rect x="210" y="280" width="40" height="25" fill="#1e40af"/>
  <rect x="260" y="280" width="40" height="25" fill="#1e40af"/>
  
  <!-- Main title -->
  <text x="400" y="280" font-family="Arial, sans-serif" font-size="48" font-weight="bold" fill="#ffffff">
    Kalkulator Panel Solar
  </text>
  
  <!-- Subtitle -->
  <text x="400" y="330" font-family="Arial, sans-serif" font-size="32" fill="#94a3b8">
    Malaysia
  </text>
  
  <!-- Description -->
  <text x="400" y="380" font-family="Arial, sans-serif" font-size="24" fill="#cbd5e1">
    Pengira Tenaga Solar Percuma untuk Rumah Anda
  </text>
  
  <!-- Features -->
  <text x="400" y="430" font-family="Arial, sans-serif" font-size="18" fill="#64748b">
    ✓ Kira Keperluan Panel Solar  ✓ Anggaran Kos  ✓ Penjimatan TNB
  </text>
  
  <!-- Website -->
  <text x="400" y="480" font-family="Arial, sans-serif" font-size="20" fill="#3b82f6">
    solar-calculator.vercel.app/ms
  </text>
</svg>