<svg width="1200" height="630" viewBox="0 0 1200 630" fill="none" xmlns="http://www.w3.org/2000/svg">
  <rect width="1200" height="630" fill="#0f172a"/>
  <defs>
    <linearGradient id="gradient" x1="0%" y1="0%" x2="100%" y2="100%">
      <stop offset="0%" style="stop-color:#3b82f6;stop-opacity:1" />
      <stop offset="100%" style="stop-color:#1d4ed8;stop-opacity:1" />
    </linearGradient>
  </defs>
  
  <!-- Solar panel icon -->
  <rect x="100" y="200" width="200" height="120" rx="8" fill="url(#gradient)" stroke="#60a5fa" stroke-width="2"/>
  <rect x="110" y="210" width="40" height="25" fill="#1e40af"/>
  <rect x="160" y="210" width="40" height="25" fill="#1e40af"/>
  <rect x="210" y="210" width="40" height="25" fill="#1e40af"/>
  <rect x="260" y="210" width="40" height="25" fill="#1e40af"/>
  <rect x="110" y="245" width="40" height="25" fill="#1e40af"/>
  <rect x="160" y="245" width="40" height="25" fill="#1e40af"/>
  <rect x="210" y="245" width="40" height="25" fill="#1e40af"/>
  <rect x="260" y="245" width="40" height="25" fill="#1e40af"/>
  <rect x="110" y="280" width="40" height="25" fill="#1e40af"/>
  <rect x="160" y="280" width="40" height="25" fill="#1e40af"/>
  <rect x="210" y="280" width="40" height="25" fill="#1e40af"/>
  <rect x="260" y="280" width="40" height="25" fill="#1e40af"/>
  
  <!-- Main title -->
  <text x="400" y="280" font-family="Arial, sans-serif" font-size="48" font-weight="bold" fill="#ffffff">
    Solar Panel Calculator
  </text>
  
  <!-- Description -->
  <text x="400" y="340" font-family="Arial, sans-serif" font-size="28" fill="#cbd5e1">
    Free Solar Energy Calculator for Your Home
  </text>
  
  <!-- Features -->
  <text x="400" y="390" font-family="Arial, sans-serif" font-size="20" fill="#64748b">
    ✓ Calculate Solar Panel Needs  ✓ Cost Estimation  ✓ Energy Savings
  </text>
  
  <!-- Website -->
  <text x="400" y="450" font-family="Arial, sans-serif" font-size="22" fill="#3b82f6">
    solar-calculator.vercel.app
  </text>
</svg>